<svg xmlns="http://www.w3.org/2000/svg" width="192" height="64" viewBox="0 0 192 64" fill="none"><path d="M0.892823 60.7642V52.204H2.21353V55.8727H5.80879V52.204H7.1295V60.7642H5.80879V57.0711H2.21353V60.7642H0.892823ZM8.28206 60.7642L10.7278 52.204H13.0513L15.4848 60.7642H14.1274L13.5649 58.7464H10.2142L9.65168 60.7642H8.28206ZM10.5444 57.5235H13.2347L11.9874 53.0233H11.7917L10.5444 57.5235ZM19.7285 60.9354C18.685 60.9354 17.8575 60.6419 17.246 60.0549C16.6346 59.4598 16.3289 58.6037 16.3289 57.4868V55.4813C16.3289 54.3644 16.6346 53.5125 17.246 52.9255C17.8575 52.3304 18.685 52.0328 19.7285 52.0328C20.7557 52.0328 21.5465 52.3182 22.1009 52.8888C22.6634 53.4595 22.9446 54.2381 22.9446 55.2245V55.2979H21.6362V55.1878C21.6362 54.609 21.4772 54.1362 21.1592 53.7693C20.8494 53.4024 20.3725 53.219 19.7285 53.219C19.0763 53.219 18.5667 53.4187 18.1999 53.8182C17.833 54.2095 17.6496 54.7558 17.6496 55.4569V57.5113C17.6496 58.2043 17.833 58.7505 18.1999 59.15C18.5667 59.5494 19.0763 59.7492 19.7285 59.7492C20.3725 59.7492 20.8494 59.5657 21.1592 59.1989C21.4772 58.8239 21.6362 58.351 21.6362 57.7803V57.5725H22.9446V57.7437C22.9446 58.7301 22.6634 59.5087 22.1009 60.0793C21.5465 60.65 20.7557 60.9354 19.7285 60.9354ZM24.4069 60.7642V52.204H25.7276V55.7626H25.9233L29.115 52.204H30.8393L26.975 56.4229L30.9738 60.7642H29.2006L25.9233 57.1322H25.7276V60.7642H24.4069ZM31.3304 60.7642L33.7762 52.204H36.0997L38.5332 60.7642H37.1758L36.6133 58.7464H33.2626L32.7001 60.7642H31.3304ZM33.5928 57.5235H36.2831L35.0358 53.0233H34.8401L33.5928 57.5235ZM40.8872 60.7642V53.4024H38.258V52.204H44.8371V53.4024H42.2079V60.7642H40.8872ZM46.0342 60.7642V52.204H47.3549V55.8727H50.9502V52.204H52.2709V60.7642H50.9502V57.0711H47.3549V60.7642H46.0342ZM57.2755 60.9354C56.2238 60.9354 55.3882 60.6419 54.7686 60.0549C54.149 59.4598 53.8392 58.6037 53.8392 57.4868V55.4813C53.8392 54.3644 54.149 53.5125 54.7686 52.9255C55.3882 52.3304 56.2238 52.0328 57.2755 52.0328C58.3272 52.0328 59.1628 52.3304 59.7824 52.9255C60.4101 53.5125 60.724 54.3644 60.724 55.4813V57.4868C60.724 58.6037 60.4101 59.4598 59.7824 60.0549C59.1628 60.6419 58.3272 60.9354 57.2755 60.9354ZM57.2755 59.7492C57.9522 59.7492 58.4739 59.5535 58.8408 59.1622C59.2076 58.7627 59.3911 58.2206 59.3911 57.5358V55.4324C59.3911 54.7476 59.2076 54.2095 58.8408 53.8182C58.4739 53.4187 57.9522 53.219 57.2755 53.219C56.6151 53.219 56.0975 53.4187 55.7224 53.8182C55.3474 54.2095 55.1599 54.7476 55.1599 55.4324V57.5358C55.1599 58.2206 55.3474 58.7627 55.7224 59.1622C56.0975 59.5535 56.6151 59.7492 57.2755 59.7492ZM62.2875 60.7642V52.204H64.8311L67.1545 59.8837H67.3502V52.204H68.6587V60.7642H66.1151L63.7916 53.0723H63.596V60.7642H62.2875ZM73.5609 60.7642V52.204H78.8437V53.4024H74.8816V55.8727H78.5258V57.0711H74.8816V60.7642H73.5609ZM83.2616 60.9354C82.21 60.9354 81.3743 60.6419 80.7547 60.0549C80.1351 59.4598 79.8254 58.6037 79.8254 57.4868V55.4813C79.8254 54.3644 80.1351 53.5125 80.7547 52.9255C81.3743 52.3304 82.21 52.0328 83.2616 52.0328C84.3133 52.0328 85.1489 52.3304 85.7685 52.9255C86.3963 53.5125 86.7102 54.3644 86.7102 55.4813V57.4868C86.7102 58.6037 86.3963 59.4598 85.7685 60.0549C85.1489 60.6419 84.3133 60.9354 83.2616 60.9354ZM83.2616 59.7492C83.9383 59.7492 84.4601 59.5535 84.8269 59.1622C85.1938 58.7627 85.3772 58.2206 85.3772 57.5358V55.4324C85.3772 54.7476 85.1938 54.2095 84.8269 53.8182C84.4601 53.4187 83.9383 53.219 83.2616 53.219C82.6013 53.219 82.0836 53.4187 81.7086 53.8182C81.3336 54.2095 81.1461 54.7476 81.1461 55.4324V57.5358C81.1461 58.2206 81.3336 58.7627 81.7086 59.1622C82.0836 59.5535 82.6013 59.7492 83.2616 59.7492ZM88.2736 60.7642V52.204H91.8689C92.3988 52.204 92.8635 52.2978 93.263 52.4853C93.6706 52.6646 93.9845 52.9255 94.2046 53.2679C94.4328 53.6103 94.547 54.018 94.547 54.4908V54.6253C94.547 55.1634 94.4165 55.5955 94.1557 55.9216C93.9029 56.2395 93.5931 56.4637 93.2263 56.5941V56.7898C93.5361 56.8061 93.7847 56.9121 93.9722 57.1078C94.1597 57.2953 94.2535 57.5684 94.2535 57.9271V60.7642H92.9206V58.1105C92.9206 57.8904 92.8635 57.7151 92.7494 57.5847C92.6352 57.4542 92.4518 57.389 92.1991 57.389H89.5943V60.7642H88.2736ZM89.5943 56.1906H91.7221C92.195 56.1906 92.5618 56.0724 92.8227 55.836C93.0836 55.5914 93.214 55.2612 93.214 54.8454V54.7476C93.214 54.3318 93.0836 54.0057 92.8227 53.7693C92.57 53.5247 92.2031 53.4024 91.7221 53.4024H89.5943V56.1906ZM99.1171 60.7642V52.204H100.438V60.7642H99.1171ZM102.222 60.7642V52.204H104.766L107.089 59.8837H107.285V52.204H108.593V60.7642H106.05L103.726 53.0723H103.531V60.7642H102.222ZM110.379 60.7642V52.204H112.922L115.246 59.8837H115.441V52.204H116.75V60.7642H114.206L111.883 53.0723H111.687V60.7642H110.379ZM121.751 60.9354C120.7 60.9354 119.864 60.6419 119.244 60.0549C118.625 59.4598 118.315 58.6037 118.315 57.4868V55.4813C118.315 54.3644 118.625 53.5125 119.244 52.9255C119.864 52.3304 120.7 52.0328 121.751 52.0328C122.803 52.0328 123.639 52.3304 124.258 52.9255C124.886 53.5125 125.2 54.3644 125.2 55.4813V57.4868C125.2 58.6037 124.886 59.4598 124.258 60.0549C123.639 60.6419 122.803 60.9354 121.751 60.9354ZM121.751 59.7492C122.428 59.7492 122.95 59.5535 123.317 59.1622C123.683 58.7627 123.867 58.2206 123.867 57.5358V55.4324C123.867 54.7476 123.683 54.2095 123.317 53.8182C122.95 53.4187 122.428 53.219 121.751 53.219C121.091 53.219 120.573 53.4187 120.198 53.8182C119.823 54.2095 119.636 54.7476 119.636 55.4324V57.5358C119.636 58.2206 119.823 58.7627 120.198 59.1622C120.573 59.5535 121.091 59.7492 121.751 59.7492ZM128.333 60.7642L125.948 52.204H127.318L129.397 59.9326H129.556L131.622 52.204H132.992L130.62 60.7642H128.333ZM132.922 60.7642L135.368 52.204H137.692L140.125 60.7642H138.768L138.205 58.7464H134.855L134.292 60.7642H132.922ZM135.185 57.5235H137.875L136.628 53.0233H136.432L135.185 57.5235ZM142.479 60.7642V53.4024H139.85V52.204H146.429V53.4024H143.8V60.7642H142.479ZM150.484 60.9354C149.432 60.9354 148.597 60.6419 147.977 60.0549C147.358 59.4598 147.048 58.6037 147.048 57.4868V55.4813C147.048 54.3644 147.358 53.5125 147.977 52.9255C148.597 52.3304 149.432 52.0328 150.484 52.0328C151.536 52.0328 152.371 52.3304 152.991 52.9255C153.619 53.5125 153.933 54.3644 153.933 55.4813V57.4868C153.933 58.6037 153.619 59.4598 152.991 60.0549C152.371 60.6419 151.536 60.9354 150.484 60.9354ZM150.484 59.7492C151.161 59.7492 151.682 59.5535 152.049 59.1622C152.416 58.7627 152.6 58.2206 152.6 57.5358V55.4324C152.6 54.7476 152.416 54.2095 152.049 53.8182C151.682 53.4187 151.161 53.219 150.484 53.219C149.824 53.219 149.306 53.4187 148.931 53.8182C148.556 54.2095 148.368 54.7476 148.368 55.4324V57.5358C148.368 58.2206 148.556 58.7627 148.931 59.1622C149.306 59.5535 149.824 59.7492 150.484 59.7492ZM155.496 60.7642V52.204H159.091C159.621 52.204 160.086 52.2978 160.485 52.4853C160.893 52.6646 161.207 52.9255 161.427 53.2679C161.655 53.6103 161.769 54.018 161.769 54.4908V54.6253C161.769 55.1634 161.639 55.5955 161.378 55.9216C161.125 56.2395 160.816 56.4637 160.449 56.5941V56.7898C160.758 56.8061 161.007 56.9121 161.195 57.1078C161.382 57.2953 161.476 57.5684 161.476 57.9271V60.7642H160.143V58.1105C160.143 57.8904 160.086 57.7151 159.972 57.5847C159.858 57.4542 159.674 57.389 159.421 57.389H156.817V60.7642H155.496ZM156.817 56.1906H158.945C159.417 56.1906 159.784 56.0724 160.045 55.836C160.306 55.5914 160.436 55.2612 160.436 54.8454V54.7476C160.436 54.3318 160.306 54.0057 160.045 53.7693C159.792 53.5247 159.426 53.4024 158.945 53.4024H156.817V56.1906ZM166.133 60.9354C165.489 60.9354 164.918 60.8212 164.421 60.593C163.924 60.3647 163.532 60.0304 163.247 59.5902C162.97 59.1418 162.831 58.5997 162.831 57.9638V57.6581H164.14V57.9638C164.14 58.5671 164.319 59.0195 164.678 59.3212C165.045 59.6228 165.53 59.7736 166.133 59.7736C166.745 59.7736 167.205 59.6473 167.515 59.3945C167.825 59.1337 167.98 58.7994 167.98 58.3918C167.98 58.1227 167.906 57.9026 167.76 57.7314C167.613 57.5602 167.405 57.4257 167.136 57.3279C166.867 57.2219 166.545 57.1241 166.17 57.0344L165.717 56.9243C165.171 56.7939 164.694 56.6349 164.287 56.4474C163.887 56.2517 163.577 55.9949 163.357 55.677C163.137 55.359 163.027 54.9514 163.027 54.4541C163.027 53.9487 163.149 53.5166 163.394 53.1579C163.647 52.7992 163.993 52.522 164.433 52.3263C164.874 52.1306 165.391 52.0328 165.986 52.0328C166.581 52.0328 167.111 52.1347 167.576 52.3385C168.049 52.5423 168.42 52.844 168.689 53.2435C168.958 53.6429 169.092 54.1443 169.092 54.7476V55.1878H167.784V54.7476C167.784 54.3807 167.707 54.0832 167.552 53.8549C167.405 53.6266 167.197 53.4595 166.928 53.3535C166.659 53.2475 166.345 53.1945 165.986 53.1945C165.465 53.1945 165.057 53.3046 164.763 53.5247C164.478 53.7367 164.335 54.0343 164.335 54.4174C164.335 54.6783 164.397 54.8943 164.519 55.0656C164.649 55.2286 164.837 55.3631 165.081 55.4691C165.326 55.5751 165.632 55.6688 165.999 55.7504L166.451 55.8604C167.005 55.9827 167.495 56.1417 167.918 56.3373C168.342 56.5249 168.677 56.7817 168.921 57.1078C169.166 57.4339 169.288 57.8537 169.288 58.3673C169.288 58.8809 169.158 59.3293 168.897 59.7125C168.644 60.0957 168.281 60.3973 167.808 60.6174C167.336 60.8294 166.777 60.9354 166.133 60.9354Z" fill="white"></path><path d="M2.66536 36.2479V13.0425C2.66536 12.5579 2.83932 12.1416 3.18725 11.7937C3.53518 11.4458 3.96387 11.2718 4.47333 11.2718H7.94017C8.42478 11.2718 8.83483 11.4458 9.17033 11.7937C9.51826 12.1416 9.69222 12.5579 9.69222 13.0425V21.43H22.5158V13.0425C22.5158 12.5579 22.6897 12.1416 23.0377 11.7937C23.3856 11.4458 23.8019 11.2718 24.2865 11.2718H27.7533C28.2628 11.2718 28.6853 11.4458 29.0208 11.7937C29.3687 12.1416 29.5426 12.5579 29.5426 13.0425V36.2479C29.5426 36.7326 29.3625 37.1488 29.0021 37.4967C28.6542 37.8322 28.2379 38 27.7533 38H24.2865C23.8019 38 23.3856 37.8385 23.0377 37.5154C22.6897 37.1799 22.5158 36.7698 22.5158 36.2852V26.7048H9.69222V36.2852C9.69222 36.7698 9.51826 37.1799 9.17033 37.5154C8.83483 37.8385 8.42478 38 7.94017 38H4.47333C3.98872 38 3.56624 37.8322 3.20589 37.4967C2.84554 37.1488 2.66536 36.7326 2.66536 36.2479ZM32.7113 36.2852L37.3896 18.541C38.6571 13.7073 42.7825 11.2843 49.7658 11.2718H59.8122C60.272 11.2718 60.651 11.4458 60.9492 11.7937C61.2598 12.1416 61.4152 12.5455 61.4152 13.0052V36.2852C61.4152 36.7698 61.2412 37.1799 60.8933 37.5154C60.5453 37.8385 60.1291 38 59.6445 38H56.1403C55.6309 38 55.2084 37.8385 54.8729 37.5154C54.5498 37.1799 54.3883 36.7574 54.3883 36.2479V31.5509H41.136L39.8872 36.2479C39.763 36.7574 39.4834 37.1799 39.0485 37.5154C38.6136 37.8385 38.1538 38 37.6692 38H33.9973C33.5127 38 33.1648 37.8633 32.9536 37.5899C32.7423 37.3041 32.6367 37.0556 32.6367 36.8444C32.6491 36.6331 32.674 36.4468 32.7113 36.2852ZM42.5153 26.2761H54.3883V16.5466H49.0762C47.8833 16.5466 46.8395 16.8883 45.9449 17.5718C45.0626 18.2428 44.4662 19.1499 44.1555 20.2931L42.5153 26.2761ZM68.6657 34.85C66.3669 32.6506 65.2175 29.2521 65.2175 24.6546C65.2175 20.0445 66.3669 16.6398 68.6657 14.4404C70.9769 12.2286 74.4375 11.1227 79.0475 11.1227H83.204C86.0247 11.1227 88.5161 11.8558 90.6782 13.3221C92.8527 14.7884 93.94 16.7952 93.94 19.3425C93.94 20.0756 93.7226 20.6037 93.2877 20.9268C92.8527 21.2374 92.4303 21.3927 92.0202 21.3927H89.8022C88.659 21.3927 87.7705 20.7093 87.1368 19.3425C86.2173 17.3792 84.6889 16.3975 82.5517 16.3975H79.2339C76.5127 16.3975 74.6674 16.9815 73.6982 18.1496C72.729 19.3176 72.2443 21.4797 72.2443 24.6359C72.2443 27.7921 72.729 29.9604 73.6982 31.1409C74.6674 32.3089 76.5127 32.8929 79.2339 32.8929H82.9431C85.0803 32.8929 86.6025 31.9113 87.5096 29.948C88.1433 28.5687 89.038 27.8791 90.1936 27.8791H92.4116C92.9956 27.8791 93.4554 28.0965 93.7909 28.5314C94.1388 28.9664 94.3128 29.4385 94.3128 29.948C94.3128 32.4953 93.2317 34.5021 91.0696 35.9684C88.9075 37.4222 86.4161 38.1491 83.5954 38.1491H79.0475C74.4375 38.1491 70.9769 37.0494 68.6657 34.85ZM96.1953 38C95.5865 38 95.282 37.708 95.282 37.124C95.282 36.8382 95.369 36.5462 95.543 36.2479L107.658 13.0425C108.242 11.8621 109.323 11.2718 110.901 11.2718H114.033C114.642 11.2718 114.946 11.5701 114.946 12.1665C114.946 12.4399 114.853 12.7319 114.666 13.0425L102.57 36.2479C101.986 37.416 100.905 38 99.3267 38H96.1953ZM115.337 28.2705V27.3572C115.337 26.5371 115.71 25.8599 116.456 25.3256L127.061 17.8141C127.496 17.5283 127.875 17.4724 128.198 17.6463C128.534 17.8079 128.702 18.1185 128.702 18.5783V21.7842C128.702 22.7037 128.155 23.5424 127.061 24.3004L122.103 27.8045L127.061 31.3273C128.155 32.0853 128.702 32.924 128.702 33.8435V37.0494C128.702 37.5092 128.534 37.8198 128.198 37.9814C127.875 38.1429 127.496 38.087 127.061 37.8136L116.456 30.2835C115.71 29.7616 115.337 29.0906 115.337 28.2705ZM132.914 36.2107V13.0052C132.914 12.5206 133.088 12.1106 133.436 11.7751C133.784 11.4396 134.2 11.2718 134.685 11.2718H156.175C156.66 11.2718 157.07 11.4458 157.405 11.7937C157.753 12.1416 157.927 12.5579 157.927 13.0425V14.7946C157.927 15.2792 157.753 15.6955 157.405 16.0434C157.07 16.3789 156.66 16.5466 156.175 16.5466H139.941V21.9706H153.92C154.405 21.9706 154.815 22.1445 155.15 22.4924C155.498 22.8279 155.672 23.238 155.672 23.7226V25.4747C155.672 25.9593 155.498 26.3755 155.15 26.7235C154.815 27.059 154.405 27.2267 153.92 27.2267H139.941V32.7252H156.138C156.61 32.7252 157.014 32.8929 157.35 33.2284C157.685 33.5639 157.853 33.974 157.853 34.4586V36.2479C157.853 36.7326 157.679 37.1488 157.331 37.4967C156.983 37.8322 156.567 38 156.082 38H134.685C134.2 38 133.784 37.8322 133.436 37.4967C133.088 37.1488 132.914 36.7201 132.914 36.2107ZM186.016 35.2414C183.481 37.4657 179.753 38.5778 174.833 38.5778C169.925 38.5778 166.197 37.4657 163.649 35.2414C161.102 33.0048 159.829 29.4696 159.829 24.6359C159.829 19.8022 161.102 16.2733 163.649 14.049C166.197 11.8248 169.925 10.7127 174.833 10.7127C179.753 10.7127 183.481 11.8248 186.016 14.049C188.563 16.2733 189.837 19.8022 189.837 24.6359C189.837 29.4696 188.563 33.0048 186.016 35.2414ZM180.928 17.9818C179.673 16.4907 177.641 15.7452 174.833 15.7452C172.037 15.7452 170.005 16.4907 168.738 17.9818C167.483 19.4729 166.855 21.6972 166.855 24.6546C166.855 27.5995 167.483 29.8175 168.738 31.3086C170.005 32.7873 172.037 33.5267 174.833 33.5267C177.641 33.5267 179.673 32.7873 180.928 31.3086C182.183 29.8175 182.81 27.5995 182.81 24.6546C182.81 21.6972 182.183 19.4729 180.928 17.9818Z" fill="white"></path><rect x="165.577" y="13.7427" width="19.949" height="22.1655" fill="white"></rect><ellipse cx="176.358" cy="21.468" rx="6.63488" ry="6.22925" fill="white"></ellipse><path d="M176.753 23.6387C177.003 23.6387 177.206 23.4359 177.206 23.1858C177.206 22.9357 177.003 22.7329 176.753 22.7329C176.503 22.7329 176.3 22.9357 176.3 23.1858C176.3 23.4359 176.503 23.6387 176.753 23.6387Z" fill="#121212"></path><path d="M179.341 20.6084C179.673 20.6084 179.941 20.3398 179.941 20.0083C179.941 19.6769 179.673 19.4082 179.341 19.4082C179.01 19.4082 178.741 19.6769 178.741 20.0083C178.741 20.3398 179.01 20.6084 179.341 20.6084Z" fill="#121212"></path><path d="M174.144 20.036C174.589 20.036 174.949 19.6758 174.949 19.2314C174.949 18.787 174.589 18.4268 174.144 18.4268C173.7 18.4268 173.34 18.787 173.34 19.2314C173.34 19.6758 173.7 20.036 174.144 20.036Z" fill="#121212"></path><path d="M182.548 16.5857C181.572 15.3651 179.039 13.2993 175.729 13.2993C173.516 13.2993 171.411 14.2244 169.471 16.0489C169.468 16.052 169.464 16.0552 169.461 16.0585C167.57 18.0045 167.817 19.8021 168.13 22.0791C168.149 22.2192 168.169 22.3612 168.188 22.5053C168.24 22.8923 167.901 23.4892 167.574 24.0666C167.081 24.934 166.572 25.831 167.194 26.2547C168.257 26.9788 168.441 28.4041 168.62 29.7831C168.662 30.1106 168.706 30.4492 168.761 30.7784C168.856 31.3464 169.335 31.6225 170.226 31.6225C170.622 31.6225 171.046 31.5736 171.455 31.5262C171.806 31.4857 172.138 31.4474 172.403 31.4474C172.551 31.4474 172.667 31.4592 172.757 31.4836C173.828 31.7738 174.763 33.9388 175.102 35.2353C175.129 35.3406 175.21 35.4234 175.315 35.4531C175.342 35.461 175.371 35.4648 175.399 35.4648C175.476 35.4648 175.553 35.4351 175.611 35.3799L181.099 30.1423C181.184 30.0611 181.215 29.9387 181.179 29.8267C180.695 28.3106 181.702 26.831 182.59 25.5248C182.978 24.9549 183.344 24.4168 183.595 23.8866C184.75 21.4411 183.918 18.2997 182.548 16.5857ZM174.96 21.749L174.756 21.4246C174.605 21.4668 174.45 21.4931 174.296 21.5032L174.211 21.8772C174.181 22.0115 174.047 22.0957 173.913 22.0651L173.129 21.8872C172.995 21.8567 172.911 21.7231 172.941 21.5889L173.026 21.2148C172.891 21.1391 172.764 21.0489 172.645 20.9454L172.321 21.1497C172.204 21.2231 172.05 21.1882 171.977 21.0717L171.549 20.3918C171.475 20.2752 171.51 20.1213 171.627 20.0478L171.951 19.8435C171.909 19.6919 171.882 19.5378 171.872 19.3835L171.498 19.2986C171.364 19.2681 171.28 19.1345 171.31 19.0002L171.488 18.2166C171.519 18.0823 171.652 17.9982 171.787 18.0287L172.161 18.1136C172.236 17.9787 172.327 17.8511 172.43 17.7326L172.226 17.4082C172.153 17.2917 172.187 17.1377 172.304 17.0643L172.984 16.636C173.1 16.5626 173.254 16.5975 173.328 16.714L173.532 17.0384C173.684 16.9962 173.838 16.9699 173.992 16.9598L174.077 16.5858C174.108 16.4515 174.241 16.3673 174.375 16.3979L175.159 16.5757C175.293 16.6063 175.377 16.7399 175.347 16.8741L175.262 17.2481C175.397 17.3238 175.525 17.4141 175.643 17.5176L175.967 17.3133C176.084 17.2399 176.238 17.2748 176.311 17.3914L176.74 18.0712C176.813 18.1877 176.778 18.3418 176.662 18.4152L176.337 18.6195C176.379 18.7711 176.406 18.9252 176.416 19.0795L176.79 19.1644C176.924 19.1949 177.008 19.3285 176.978 19.4628L176.8 20.2464C176.769 20.3807 176.636 20.4648 176.502 20.4344L176.128 20.3494C176.052 20.4843 175.962 20.612 175.858 20.7304L176.062 21.0548C176.136 21.1713 176.101 21.3253 175.984 21.3987L175.304 21.827C175.188 21.9004 175.034 21.8654 174.96 21.749ZM178.243 23.1656L178.034 23.2215C178.032 23.3086 178.02 23.3958 178 23.482L178.187 23.5898C178.254 23.6285 178.277 23.7143 178.238 23.7816L178.012 24.1733C177.974 24.2405 177.888 24.2635 177.821 24.2247L177.634 24.1169C177.569 24.1777 177.5 24.2313 177.425 24.2768L177.481 24.4853C177.502 24.5603 177.457 24.6372 177.382 24.6572L176.945 24.7745C176.87 24.7946 176.793 24.7501 176.773 24.6753L176.717 24.4668C176.63 24.4645 176.543 24.4531 176.457 24.4327L176.349 24.6196C176.31 24.6867 176.225 24.7098 176.157 24.6709L175.766 24.445C175.699 24.4062 175.675 24.3204 175.714 24.2532L175.822 24.0663C175.761 24.0019 175.708 23.932 175.662 23.8579L175.454 23.9138C175.379 23.9339 175.302 23.8895 175.282 23.8147L175.164 23.3778C175.144 23.3029 175.189 23.2258 175.264 23.2058L175.472 23.1498C175.474 23.0629 175.486 22.9756 175.506 22.8894L175.319 22.7816C175.252 22.7429 175.229 22.657 175.268 22.5898L175.494 22.198C175.533 22.1309 175.619 22.1079 175.686 22.1466L175.873 22.2544C175.937 22.1936 176.007 22.14 176.081 22.0945L176.025 21.886C176.005 21.8111 176.049 21.7341 176.124 21.7141L176.561 21.5968C176.636 21.5768 176.713 21.6212 176.733 21.6961L176.789 21.9046C176.876 21.9068 176.963 21.9183 177.049 21.9387L177.157 21.7518C177.196 21.6846 177.282 21.6616 177.349 21.7003L177.741 21.9263C177.808 21.9651 177.831 22.0509 177.792 22.118L177.684 22.3049C177.745 22.3693 177.799 22.4392 177.844 22.5134L178.053 22.4574C178.128 22.4373 178.205 22.4818 178.225 22.5566L178.342 22.9935C178.362 23.0685 178.317 23.1455 178.243 23.1656ZM181.315 19.9812L181.039 20.0554C181.036 20.1707 181.021 20.2863 180.993 20.4005L181.241 20.5434C181.33 20.5947 181.361 20.7084 181.309 20.7974L181.01 21.3166C180.958 21.4056 180.845 21.4361 180.756 21.3848L180.508 21.2419C180.423 21.3225 180.33 21.3935 180.232 21.4538L180.306 21.7301C180.333 21.8293 180.274 21.9313 180.175 21.9579L179.596 22.1132C179.497 22.1399 179.394 22.0811 179.368 21.9818L179.294 21.7055C179.179 21.7025 179.063 21.6874 178.949 21.6603L178.806 21.908C178.755 21.997 178.641 22.0275 178.552 21.9761L178.033 21.6767C177.944 21.6253 177.913 21.5115 177.964 21.4227L178.107 21.1749C178.027 21.0896 177.956 20.9971 177.895 20.8988L177.619 20.9729C177.52 20.9996 177.418 20.9407 177.391 20.8415L177.236 20.2627C177.209 20.1635 177.268 20.0614 177.367 20.0348L177.644 19.9607C177.647 19.8454 177.662 19.7297 177.689 19.6156L177.441 19.4727C177.352 19.4214 177.322 19.3076 177.373 19.2187L177.673 18.6995C177.724 18.6105 177.838 18.58 177.927 18.6313L178.174 18.7742C178.26 18.6936 178.352 18.6226 178.45 18.5623L178.376 18.2861C178.35 18.1868 178.409 18.0848 178.508 18.0582L179.087 17.9028C179.186 17.8762 179.288 17.9351 179.314 18.0343L179.389 18.3106C179.504 18.3136 179.62 18.3287 179.734 18.3558L179.877 18.1081C179.928 18.0191 180.042 17.9886 180.131 18.0399L180.65 18.3394C180.739 18.3907 180.769 18.5045 180.718 18.5934L180.575 18.8411C180.656 18.9264 180.727 19.0189 180.787 19.1172L181.063 19.0431C181.162 19.0165 181.264 19.0753 181.291 19.1746L181.446 19.7534C181.473 19.8527 181.414 19.9546 181.315 19.9812Z" fill="#121212"></path></svg>